# xmcd CD database file
#
# Track frame offsets:
#	150
#	21960
#	47242
#	69122
#
# Disc length: 1256 seconds
#
# Revision: 0
# Processed by: cddbd v1.5.1PL2 Copyright (c) Steve Scherf et al.
# Submitted via: CDex 1.51
#
DISCID=2c04e604
DTITLE=上田まり - 伝えたい
DYEAR=1998
DGENRE=JPop
TTITLE0=伝えたい
TTITLE1=今年の冬は
TTITLE2=伝えたい (original karaoke)
TTITLE3=今年の冬は (original karaoke)
EXTD=YEAR: 1998
EXTT0=
EXTT1=
EXTT2=
EXTT3=
PLAYORDER=
